<svg width="359" height="388" viewBox="0 0 359 388" fill="none" xmlns="http://www.w3.org/2000/svg">
<path d="M263.645 284.371C286.059 284.371 304.295 267.69 304.295 247.186C304.295 226.681 286.059 210 263.645 210C241.232 210 223 226.681 223 247.186C223 267.69 241.232 284.371 263.645 284.371ZM263.645 228.064C275.173 228.064 284.55 236.641 284.55 247.186C284.55 257.73 275.173 266.309 263.645 266.309C252.12 266.309 242.744 257.73 242.744 247.186C242.744 236.641 252.12 228.064 263.645 228.064Z" fill="white"/>
<path d="M424.894 247.958C459.253 221.313 485.872 194.165 498.052 170.215C494.989 170.783 491.819 171.083 488.574 171.083C484.264 171.083 480.089 170.548 476.112 169.562C469.453 180.165 459.383 192.162 446.208 204.933C435.509 215.302 423.163 225.844 409.458 236.369C392.434 224.02 373.731 211.788 353.766 199.966C352.364 180.023 350.095 160.37 346.977 141.63C383.087 130.173 415.677 123.64 441.11 123.161C441.81 116.612 444.1 110.488 447.62 105.107C446.456 105.083 445.301 105.051 444.103 105.051C417.056 105.051 382.201 111.687 343.665 123.66C329.416 53.4149 302.493 0 264.153 0C225.81 0 198.885 53.4146 184.64 123.66C146.101 111.687 111.248 105.051 84.2012 105.051C84.0809 105.051 83.9689 105.056 83.8483 105.056C87.4024 110.473 89.7077 116.648 90.4006 123.248C115.339 124.189 146.717 130.65 181.325 141.63C178.208 160.37 175.938 180.024 174.534 199.968C154.571 211.79 135.87 224.02 118.846 236.369C105.14 225.845 92.7941 215.302 82.0958 204.933C69.1772 192.413 59.2414 180.632 52.5816 170.183C49.4611 170.772 46.232 171.083 42.9242 171.083C38.3862 171.083 33.9993 170.486 29.8391 169.399C41.8226 193.547 68.6594 221.012 103.41 247.958C90.1908 258.242 78.2128 268.544 67.7355 278.701C28.4854 316.746 14.6881 348.16 27.8303 369.549C36.5692 383.77 55.5332 390.981 84.1967 390.981C111.245 390.981 146.098 384.346 184.638 372.37C192.512 411.194 204.26 444.865 219.667 467.229C222.565 461.072 226.972 455.647 232.453 451.334C226.564 441.414 220.979 428.954 215.992 414.316C211.028 399.756 206.805 383.591 203.364 366.224C223.048 359.439 243.475 351.39 264.153 342.228C284.829 351.39 305.254 359.439 324.938 366.222C321.496 383.59 317.273 399.756 312.311 414.316C307.207 429.296 301.477 442.006 295.434 452.038C300.838 456.501 305.116 462.083 307.846 468.376C323.643 446.025 335.655 411.857 343.666 372.369C382.203 384.346 417.059 390.981 444.109 390.981C472.768 390.981 491.735 383.769 500.472 369.548C513.616 348.16 499.818 316.746 460.569 278.701C450.09 268.544 438.112 258.241 424.894 247.958ZM393.725 248.014C381.614 256.67 368.643 265.263 354.972 273.692C355.292 265.125 355.459 256.553 355.459 248.017C355.459 239.478 355.292 230.903 354.972 222.337C368.644 230.765 381.614 239.359 393.725 248.014ZM192.586 248.017C192.586 235.239 192.936 222.627 193.608 210.259C205.061 203.664 216.91 197.206 229.083 190.945C240.785 184.926 252.504 179.25 264.153 173.918C275.801 179.25 287.519 184.926 299.22 190.945C311.396 197.205 323.242 203.664 334.695 210.258C335.368 222.624 335.715 235.238 335.715 248.017C335.715 260.792 335.368 273.405 334.695 285.771C323.24 292.366 311.393 298.825 299.217 305.087C287.517 311.103 275.799 316.782 264.153 322.111C252.505 316.782 240.785 311.103 229.086 305.086C216.91 298.823 205.063 292.364 193.608 285.769C192.936 273.405 192.586 260.792 192.586 248.017ZM333.118 188.14C325.196 183.748 317.118 179.427 308.894 175.199C301.433 171.362 293.958 167.661 286.492 164.089C300.654 158.113 314.605 152.706 328.177 147.927C330.239 160.832 331.891 174.284 333.118 188.14ZM215.992 81.7158C229.575 41.8587 247.577 18.0627 264.153 18.0627C280.726 18.0627 298.729 41.8587 312.311 81.7158C317.273 96.2776 321.496 112.442 324.937 129.807C305.254 136.59 284.828 144.639 264.153 153.803C243.475 144.639 223.05 136.59 203.364 129.807C206.808 112.442 211.028 96.2773 215.992 81.7158ZM200.124 147.926C213.696 152.705 227.649 158.113 241.811 164.09C234.345 167.661 226.871 171.362 219.41 175.199C211.186 179.427 203.105 183.748 195.183 188.141C196.412 174.284 198.063 160.832 200.124 147.926ZM173.332 222.339C173.01 230.905 172.842 239.478 172.842 248.017C172.842 256.553 173.01 265.126 173.331 273.69C159.659 265.263 146.692 256.669 134.58 248.016C146.692 239.36 159.659 230.766 173.332 222.339ZM84.197 372.918C63.7884 372.918 49.8827 368.577 45.0396 360.698C36.9195 347.48 50.7703 321.463 82.0945 291.099C92.814 280.704 105.194 270.139 118.935 259.59C136.193 272.088 154.962 284.347 174.531 295.981C175.933 315.951 178.202 335.634 181.325 354.402C143.79 366.309 110.037 372.918 84.197 372.918ZM200.124 348.103C198.062 335.189 196.409 321.726 195.18 307.859C203.185 312.312 211.274 316.646 219.411 320.83C226.871 324.667 234.346 328.368 241.813 331.939C227.651 337.916 213.696 343.325 200.124 348.103ZM286.492 331.939C293.958 328.368 301.433 324.667 308.891 320.832C317.027 316.647 325.116 312.313 333.123 307.86C331.894 321.726 330.242 335.189 328.177 348.102C314.605 343.325 300.654 337.916 286.492 331.939ZM483.263 360.698C478.42 368.577 464.515 372.918 444.109 372.918C418.266 372.918 384.514 366.309 346.978 354.402C350.099 335.634 352.372 315.952 353.772 295.98C373.342 284.348 392.111 272.09 409.371 259.59C423.109 270.139 435.489 280.704 446.212 291.098C477.532 321.463 491.385 347.48 483.263 360.698Z" fill="white"/>
<path d="M81.6185 122.859C81.6185 102.272 63.3108 85.5243 40.8079 85.5243C18.3064 85.5243 0 102.272 0 122.859C0 143.444 18.3064 160.193 40.8079 160.193C63.3108 160.193 81.6185 143.444 81.6185 122.859ZM20.0673 122.859C20.0673 112.396 29.3714 103.883 40.8079 103.883C52.2454 103.883 61.5512 112.396 61.5512 122.859C61.5512 133.321 52.2454 141.834 40.8079 141.834C29.3714 141.834 20.0673 133.321 20.0673 122.859Z" fill="white"/>
</svg>
