<svg width="364" height="376" viewBox="0 0 364 376" fill="none" xmlns="http://www.w3.org/2000/svg">
<g clip-path="url(#clip0_53_113)">
<mask id="path-1-outside-1_53_113" maskUnits="userSpaceOnUse" x="-22" y="-2" width="304" height="384" fill="black">
<rect fill="white" x="-22" y="-2" width="304" height="384"/>
<path d="M278.952 361.212C277.871 359.624 276.407 358.322 274.716 357.449L259.124 349.39L220.508 253.914C222.712 242.557 234.226 182.342 234.226 163.791C234.226 145.634 216.513 99.9307 210.939 85.9963C216.588 79.6156 217.496 77.1882 217.884 76.1421C220.147 70.0478 221.1 63.3918 220.639 56.8936L217.957 19.0609C217.65 14.7204 216.511 10.5534 214.575 6.67355C211.963 1.43997 206.051 -1.15868 200.518 0.494858C197.111 1.51254 194.341 3.99444 192.916 7.30231L188.086 18.5189C184.607 26.5989 178.265 32.8636 170.228 36.1604C169.94 36.2788 169.642 36.3726 169.349 36.4365C169.053 36.5012 168.745 36.5399 168.432 36.5525C159.773 36.9107 151.464 33.8418 145.035 27.9282L135.795 19.4317C133.206 17.0508 129.644 16.0434 126.225 16.7195C120.616 17.6101 116.374 22.4035 116.105 28.1964C115.904 32.5433 116.546 36.8192 118.015 40.9049L130.823 76.5247C133.023 82.6419 136.575 88.3133 141.097 92.926C141.785 93.6273 143.28 95.1468 148.979 97.8882L147.143 108.112C146.589 111.202 145.159 114.025 143.008 116.277L130.076 129.82C124.77 135.375 117.684 138.928 110.123 139.823L88.6904 142.36C65.5161 145.104 44.6387 157.921 31.4106 177.526C16.1995 200.072 3.9959 223.005 -4.86311 245.69C-14.2878 269.827 -19.6286 293.088 -20.8182 315.107C-21.1816 321.835 -20.9662 339.375 -20.4733 343.478C-19.4241 352.221 -15.5417 365.213 -2.39495 373.199C2.35382 376.084 14.2141 380.003 62.1676 380.736C67.5526 380.818 72.9841 380.853 78.3505 380.853C100.435 380.853 121.398 380.253 133.241 379.839C140.764 379.575 146.658 373.362 146.658 365.695C146.658 361.802 145.138 358.174 142.379 355.48C139.62 352.786 135.985 351.394 132.18 351.556C122.89 351.95 114.24 352.225 106.188 352.402C109.91 344.049 109.082 333.264 108.359 323.897C107.668 314.949 106.954 305.697 109.707 299.583C114.737 288.41 123.083 281.772 127.985 278.632L148.156 306.104C149.607 308.081 150.32 310.525 150.164 312.987L148.13 345.078C147.545 354.323 154.174 362.337 163.222 363.324C163.837 363.391 164.45 363.425 165.059 363.425C168.921 363.425 172.636 362.091 175.681 359.58C179.205 356.674 181.402 352.544 181.867 347.951L185.695 310.084C186.098 306.096 185.432 302.066 183.77 298.432L167.358 262.557L175.768 254.24L191.917 302.191C192.061 302.616 192.251 303.023 192.484 303.404L233.035 369.587C236.856 375.822 243.446 379.544 250.664 379.544H269.521C273.803 379.544 277.698 377.144 279.685 373.282C281.672 369.418 281.391 364.793 278.952 361.212ZM128.931 36.8373C127.996 34.2394 127.588 31.5201 127.717 28.7558C127.724 28.5798 137.244 36.7111 137.244 36.7111C145.943 44.7113 157.181 48.8594 168.896 48.379C169.87 48.3395 170.843 48.2149 171.792 48.0082C172.736 47.8015 173.673 47.5088 174.574 47.138C185.447 42.6776 194.027 34.2024 198.734 23.2721C198.734 23.2721 204.136 11.8795 204.214 12.0365C205.445 14.5034 206.168 17.1541 206.364 19.9137L209.046 57.7464C209.387 62.5445 208.683 67.4578 207.017 71.9435C206.42 73.4038 201.789 79.4831 188.526 92.0353C186.994 93.4861 185.615 94.9835 184.47 96.2568C183.255 97.6042 181.33 98.0255 179.681 97.306C178.111 96.6189 176.24 95.826 174.273 95.1484C157.121 89.245 150.447 85.6373 149.326 84.566C145.986 81.1603 143.365 76.9728 141.741 72.4571L128.931 36.8373ZM250.666 367.709C247.486 367.709 244.582 366.069 242.9 363.322L202.7 297.713L184.988 245.121L199.917 230.358C202.22 228.081 202.273 224.335 200.036 221.991C197.8 219.648 194.121 219.593 191.818 221.871L162.163 251.197L162.08 251.016C161.138 248.957 161.249 246.558 162.376 244.598L196.234 185.715C197.856 182.894 196.924 179.27 194.154 177.619C191.383 175.968 187.823 176.916 186.202 179.736L152.343 238.62C149.29 243.931 148.99 250.433 151.543 256.012L173.235 303.427C174.012 305.125 174.323 307.009 174.134 308.872L170.305 346.739C170.16 348.178 169.472 349.472 168.367 350.383C167.262 351.294 165.88 351.711 164.462 351.556C161.627 351.247 159.549 348.734 159.732 345.838L161.766 313.747C162.1 308.478 160.575 303.247 157.469 299.018L113.609 239.283C109.091 233.13 108.772 224.638 112.816 218.151L129.48 191.418C131.201 188.659 130.398 185.003 127.687 183.252C124.977 181.499 121.386 182.318 119.666 185.077L103.001 211.811C96.3894 222.418 96.9109 236.305 104.298 246.368L121.001 269.117C118.984 270.45 116.64 272.176 114.181 274.349C113.408 269.246 111.693 264.293 109.004 259.795C92.1474 231.594 46.1692 223.007 44.2202 222.655C41.0616 222.085 38.044 224.231 37.483 227.448C36.9227 230.666 39.0305 233.737 42.1915 234.307C42.2984 234.326 53.049 236.298 65.6091 241.34C76.8673 245.859 91.8118 253.796 99.0753 265.947C103.347 273.093 104.167 281.896 101.529 289.945C100.689 291.438 99.8858 292.999 99.1419 294.65C95.1316 303.557 95.9655 314.367 96.7722 324.822C98.0291 341.116 97.7811 349.385 90.1574 352.628C52.4934 352.838 31.8283 350.513 28.1373 347.639C25.5878 345.655 21.9402 346.149 19.9905 348.745C18.0407 351.341 18.5266 355.054 21.0769 357.039C25.0601 360.14 34.5801 363.777 73.1732 364.388C95.7919 364.747 120.156 363.909 132.665 363.377C133.502 363.341 134.073 363.764 134.335 364.019C134.597 364.274 135.035 364.831 135.035 365.694C135.035 366.949 134.072 367.967 132.843 368.01C63.2928 370.445 12.5465 368.493 3.56194 363.036C-2.61813 359.282 -5.8217 353.534 -7.46765 348.185C-9.63668 341.136 -9.54292 322.077 -9.2035 315.863C-6.27658 262.227 22.6787 211.371 40.9926 184.226C52.3198 167.438 70.1944 156.463 90.0334 154.114L111.466 151.577C121.676 150.369 131.244 145.571 138.411 138.069L151.343 124.526C155.106 120.586 157.608 115.646 158.579 110.239L159.964 102.528C162.976 103.683 166.469 104.954 170.549 106.358C172.129 106.902 173.733 107.584 175.095 108.179C177.109 109.059 179.232 109.485 181.336 109.485C185.693 109.485 189.972 107.658 193.039 104.252C194.03 103.151 195.21 101.867 196.442 100.701C198.52 98.7347 200.381 96.9328 202.069 95.2659C209.839 115.201 222.603 150.691 222.603 163.791C222.603 182.706 208.905 252.65 208.768 253.354C208.543 254.5 208.655 255.687 209.092 256.767L249.198 355.924C249.728 357.233 250.701 358.305 251.941 358.947L268.891 367.708L250.666 367.709Z"/>
</mask>
<path d="M278.952 361.212C277.871 359.624 276.407 358.322 274.716 357.449L259.124 349.39L220.508 253.914C222.712 242.557 234.226 182.342 234.226 163.791C234.226 145.634 216.513 99.9307 210.939 85.9963C216.588 79.6156 217.496 77.1882 217.884 76.1421C220.147 70.0478 221.1 63.3918 220.639 56.8936L217.957 19.0609C217.65 14.7204 216.511 10.5534 214.575 6.67355C211.963 1.43997 206.051 -1.15868 200.518 0.494858C197.111 1.51254 194.341 3.99444 192.916 7.30231L188.086 18.5189C184.607 26.5989 178.265 32.8636 170.228 36.1604C169.94 36.2788 169.642 36.3726 169.349 36.4365C169.053 36.5012 168.745 36.5399 168.432 36.5525C159.773 36.9107 151.464 33.8418 145.035 27.9282L135.795 19.4317C133.206 17.0508 129.644 16.0434 126.225 16.7195C120.616 17.6101 116.374 22.4035 116.105 28.1964C115.904 32.5433 116.546 36.8192 118.015 40.9049L130.823 76.5247C133.023 82.6419 136.575 88.3133 141.097 92.926C141.785 93.6273 143.28 95.1468 148.979 97.8882L147.143 108.112C146.589 111.202 145.159 114.025 143.008 116.277L130.076 129.82C124.77 135.375 117.684 138.928 110.123 139.823L88.6904 142.36C65.5161 145.104 44.6387 157.921 31.4106 177.526C16.1995 200.072 3.9959 223.005 -4.86311 245.69C-14.2878 269.827 -19.6286 293.088 -20.8182 315.107C-21.1816 321.835 -20.9662 339.375 -20.4733 343.478C-19.4241 352.221 -15.5417 365.213 -2.39495 373.199C2.35382 376.084 14.2141 380.003 62.1676 380.736C67.5526 380.818 72.9841 380.853 78.3505 380.853C100.435 380.853 121.398 380.253 133.241 379.839C140.764 379.575 146.658 373.362 146.658 365.695C146.658 361.802 145.138 358.174 142.379 355.48C139.62 352.786 135.985 351.394 132.18 351.556C122.89 351.95 114.24 352.225 106.188 352.402C109.91 344.049 109.082 333.264 108.359 323.897C107.668 314.949 106.954 305.697 109.707 299.583C114.737 288.41 123.083 281.772 127.985 278.632L148.156 306.104C149.607 308.081 150.32 310.525 150.164 312.987L148.13 345.078C147.545 354.323 154.174 362.337 163.222 363.324C163.837 363.391 164.45 363.425 165.059 363.425C168.921 363.425 172.636 362.091 175.681 359.58C179.205 356.674 181.402 352.544 181.867 347.951L185.695 310.084C186.098 306.096 185.432 302.066 183.77 298.432L167.358 262.557L175.768 254.24L191.917 302.191C192.061 302.616 192.251 303.023 192.484 303.404L233.035 369.587C236.856 375.822 243.446 379.544 250.664 379.544H269.521C273.803 379.544 277.698 377.144 279.685 373.282C281.672 369.418 281.391 364.793 278.952 361.212ZM128.931 36.8373C127.996 34.2394 127.588 31.5201 127.717 28.7558C127.724 28.5798 137.244 36.7111 137.244 36.7111C145.943 44.7113 157.181 48.8594 168.896 48.379C169.87 48.3395 170.843 48.2149 171.792 48.0082C172.736 47.8015 173.673 47.5088 174.574 47.138C185.447 42.6776 194.027 34.2024 198.734 23.2721C198.734 23.2721 204.136 11.8795 204.214 12.0365C205.445 14.5034 206.168 17.1541 206.364 19.9137L209.046 57.7464C209.387 62.5445 208.683 67.4578 207.017 71.9435C206.42 73.4038 201.789 79.4831 188.526 92.0353C186.994 93.4861 185.615 94.9835 184.47 96.2568C183.255 97.6042 181.33 98.0255 179.681 97.306C178.111 96.6189 176.24 95.826 174.273 95.1484C157.121 89.245 150.447 85.6373 149.326 84.566C145.986 81.1603 143.365 76.9728 141.741 72.4571L128.931 36.8373ZM250.666 367.709C247.486 367.709 244.582 366.069 242.9 363.322L202.7 297.713L184.988 245.121L199.917 230.358C202.22 228.081 202.273 224.335 200.036 221.991C197.8 219.648 194.121 219.593 191.818 221.871L162.163 251.197L162.08 251.016C161.138 248.957 161.249 246.558 162.376 244.598L196.234 185.715C197.856 182.894 196.924 179.27 194.154 177.619C191.383 175.968 187.823 176.916 186.202 179.736L152.343 238.62C149.29 243.931 148.99 250.433 151.543 256.012L173.235 303.427C174.012 305.125 174.323 307.009 174.134 308.872L170.305 346.739C170.16 348.178 169.472 349.472 168.367 350.383C167.262 351.294 165.88 351.711 164.462 351.556C161.627 351.247 159.549 348.734 159.732 345.838L161.766 313.747C162.1 308.478 160.575 303.247 157.469 299.018L113.609 239.283C109.091 233.13 108.772 224.638 112.816 218.151L129.48 191.418C131.201 188.659 130.398 185.003 127.687 183.252C124.977 181.499 121.386 182.318 119.666 185.077L103.001 211.811C96.3894 222.418 96.9109 236.305 104.298 246.368L121.001 269.117C118.984 270.45 116.64 272.176 114.181 274.349C113.408 269.246 111.693 264.293 109.004 259.795C92.1474 231.594 46.1692 223.007 44.2202 222.655C41.0616 222.085 38.044 224.231 37.483 227.448C36.9227 230.666 39.0305 233.737 42.1915 234.307C42.2984 234.326 53.049 236.298 65.6091 241.34C76.8673 245.859 91.8118 253.796 99.0753 265.947C103.347 273.093 104.167 281.896 101.529 289.945C100.689 291.438 99.8858 292.999 99.1419 294.65C95.1316 303.557 95.9655 314.367 96.7722 324.822C98.0291 341.116 97.7811 349.385 90.1574 352.628C52.4934 352.838 31.8283 350.513 28.1373 347.639C25.5878 345.655 21.9402 346.149 19.9905 348.745C18.0407 351.341 18.5266 355.054 21.0769 357.039C25.0601 360.14 34.5801 363.777 73.1732 364.388C95.7919 364.747 120.156 363.909 132.665 363.377C133.502 363.341 134.073 363.764 134.335 364.019C134.597 364.274 135.035 364.831 135.035 365.694C135.035 366.949 134.072 367.967 132.843 368.01C63.2928 370.445 12.5465 368.493 3.56194 363.036C-2.61813 359.282 -5.8217 353.534 -7.46765 348.185C-9.63668 341.136 -9.54292 322.077 -9.2035 315.863C-6.27658 262.227 22.6787 211.371 40.9926 184.226C52.3198 167.438 70.1944 156.463 90.0334 154.114L111.466 151.577C121.676 150.369 131.244 145.571 138.411 138.069L151.343 124.526C155.106 120.586 157.608 115.646 158.579 110.239L159.964 102.528C162.976 103.683 166.469 104.954 170.549 106.358C172.129 106.902 173.733 107.584 175.095 108.179C177.109 109.059 179.232 109.485 181.336 109.485C185.693 109.485 189.972 107.658 193.039 104.252C194.03 103.151 195.21 101.867 196.442 100.701C198.52 98.7347 200.381 96.9328 202.069 95.2659C209.839 115.201 222.603 150.691 222.603 163.791C222.603 182.706 208.905 252.65 208.768 253.354C208.543 254.5 208.655 255.687 209.092 256.767L249.198 355.924C249.728 357.233 250.701 358.305 251.941 358.947L268.891 367.708L250.666 367.709Z" fill="white"/>
<path d="M278.952 361.212C277.871 359.624 276.407 358.322 274.716 357.449L259.124 349.39L220.508 253.914C222.712 242.557 234.226 182.342 234.226 163.791C234.226 145.634 216.513 99.9307 210.939 85.9963C216.588 79.6156 217.496 77.1882 217.884 76.1421C220.147 70.0478 221.1 63.3918 220.639 56.8936L217.957 19.0609C217.65 14.7204 216.511 10.5534 214.575 6.67355C211.963 1.43997 206.051 -1.15868 200.518 0.494858C197.111 1.51254 194.341 3.99444 192.916 7.30231L188.086 18.5189C184.607 26.5989 178.265 32.8636 170.228 36.1604C169.94 36.2788 169.642 36.3726 169.349 36.4365C169.053 36.5012 168.745 36.5399 168.432 36.5525C159.773 36.9107 151.464 33.8418 145.035 27.9282L135.795 19.4317C133.206 17.0508 129.644 16.0434 126.225 16.7195C120.616 17.6101 116.374 22.4035 116.105 28.1964C115.904 32.5433 116.546 36.8192 118.015 40.9049L130.823 76.5247C133.023 82.6419 136.575 88.3133 141.097 92.926C141.785 93.6273 143.28 95.1468 148.979 97.8882L147.143 108.112C146.589 111.202 145.159 114.025 143.008 116.277L130.076 129.82C124.77 135.375 117.684 138.928 110.123 139.823L88.6904 142.36C65.5161 145.104 44.6387 157.921 31.4106 177.526C16.1995 200.072 3.9959 223.005 -4.86311 245.69C-14.2878 269.827 -19.6286 293.088 -20.8182 315.107C-21.1816 321.835 -20.9662 339.375 -20.4733 343.478C-19.4241 352.221 -15.5417 365.213 -2.39495 373.199C2.35382 376.084 14.2141 380.003 62.1676 380.736C67.5526 380.818 72.9841 380.853 78.3505 380.853C100.435 380.853 121.398 380.253 133.241 379.839C140.764 379.575 146.658 373.362 146.658 365.695C146.658 361.802 145.138 358.174 142.379 355.48C139.62 352.786 135.985 351.394 132.18 351.556C122.89 351.95 114.24 352.225 106.188 352.402C109.91 344.049 109.082 333.264 108.359 323.897C107.668 314.949 106.954 305.697 109.707 299.583C114.737 288.41 123.083 281.772 127.985 278.632L148.156 306.104C149.607 308.081 150.32 310.525 150.164 312.987L148.13 345.078C147.545 354.323 154.174 362.337 163.222 363.324C163.837 363.391 164.45 363.425 165.059 363.425C168.921 363.425 172.636 362.091 175.681 359.58C179.205 356.674 181.402 352.544 181.867 347.951L185.695 310.084C186.098 306.096 185.432 302.066 183.77 298.432L167.358 262.557L175.768 254.24L191.917 302.191C192.061 302.616 192.251 303.023 192.484 303.404L233.035 369.587C236.856 375.822 243.446 379.544 250.664 379.544H269.521C273.803 379.544 277.698 377.144 279.685 373.282C281.672 369.418 281.391 364.793 278.952 361.212ZM128.931 36.8373C127.996 34.2394 127.588 31.5201 127.717 28.7558C127.724 28.5798 137.244 36.7111 137.244 36.7111C145.943 44.7113 157.181 48.8594 168.896 48.379C169.87 48.3395 170.843 48.2149 171.792 48.0082C172.736 47.8015 173.673 47.5088 174.574 47.138C185.447 42.6776 194.027 34.2024 198.734 23.2721C198.734 23.2721 204.136 11.8795 204.214 12.0365C205.445 14.5034 206.168 17.1541 206.364 19.9137L209.046 57.7464C209.387 62.5445 208.683 67.4578 207.017 71.9435C206.42 73.4038 201.789 79.4831 188.526 92.0353C186.994 93.4861 185.615 94.9835 184.47 96.2568C183.255 97.6042 181.33 98.0255 179.681 97.306C178.111 96.6189 176.24 95.826 174.273 95.1484C157.121 89.245 150.447 85.6373 149.326 84.566C145.986 81.1603 143.365 76.9728 141.741 72.4571L128.931 36.8373ZM250.666 367.709C247.486 367.709 244.582 366.069 242.9 363.322L202.7 297.713L184.988 245.121L199.917 230.358C202.22 228.081 202.273 224.335 200.036 221.991C197.8 219.648 194.121 219.593 191.818 221.871L162.163 251.197L162.08 251.016C161.138 248.957 161.249 246.558 162.376 244.598L196.234 185.715C197.856 182.894 196.924 179.27 194.154 177.619C191.383 175.968 187.823 176.916 186.202 179.736L152.343 238.62C149.29 243.931 148.99 250.433 151.543 256.012L173.235 303.427C174.012 305.125 174.323 307.009 174.134 308.872L170.305 346.739C170.16 348.178 169.472 349.472 168.367 350.383C167.262 351.294 165.88 351.711 164.462 351.556C161.627 351.247 159.549 348.734 159.732 345.838L161.766 313.747C162.1 308.478 160.575 303.247 157.469 299.018L113.609 239.283C109.091 233.13 108.772 224.638 112.816 218.151L129.48 191.418C131.201 188.659 130.398 185.003 127.687 183.252C124.977 181.499 121.386 182.318 119.666 185.077L103.001 211.811C96.3894 222.418 96.9109 236.305 104.298 246.368L121.001 269.117C118.984 270.45 116.64 272.176 114.181 274.349C113.408 269.246 111.693 264.293 109.004 259.795C92.1474 231.594 46.1692 223.007 44.2202 222.655C41.0616 222.085 38.044 224.231 37.483 227.448C36.9227 230.666 39.0305 233.737 42.1915 234.307C42.2984 234.326 53.049 236.298 65.6091 241.34C76.8673 245.859 91.8118 253.796 99.0753 265.947C103.347 273.093 104.167 281.896 101.529 289.945C100.689 291.438 99.8858 292.999 99.1419 294.65C95.1316 303.557 95.9655 314.367 96.7722 324.822C98.0291 341.116 97.7811 349.385 90.1574 352.628C52.4934 352.838 31.8283 350.513 28.1373 347.639C25.5878 345.655 21.9402 346.149 19.9905 348.745C18.0407 351.341 18.5266 355.054 21.0769 357.039C25.0601 360.14 34.5801 363.777 73.1732 364.388C95.7919 364.747 120.156 363.909 132.665 363.377C133.502 363.341 134.073 363.764 134.335 364.019C134.597 364.274 135.035 364.831 135.035 365.694C135.035 366.949 134.072 367.967 132.843 368.01C63.2928 370.445 12.5465 368.493 3.56194 363.036C-2.61813 359.282 -5.8217 353.534 -7.46765 348.185C-9.63668 341.136 -9.54292 322.077 -9.2035 315.863C-6.27658 262.227 22.6787 211.371 40.9926 184.226C52.3198 167.438 70.1944 156.463 90.0334 154.114L111.466 151.577C121.676 150.369 131.244 145.571 138.411 138.069L151.343 124.526C155.106 120.586 157.608 115.646 158.579 110.239L159.964 102.528C162.976 103.683 166.469 104.954 170.549 106.358C172.129 106.902 173.733 107.584 175.095 108.179C177.109 109.059 179.232 109.485 181.336 109.485C185.693 109.485 189.972 107.658 193.039 104.252C194.03 103.151 195.21 101.867 196.442 100.701C198.52 98.7347 200.381 96.9328 202.069 95.2659C209.839 115.201 222.603 150.691 222.603 163.791C222.603 182.706 208.905 252.65 208.768 253.354C208.543 254.5 208.655 255.687 209.092 256.767L249.198 355.924C249.728 357.233 250.701 358.305 251.941 358.947L268.891 367.708L250.666 367.709Z" stroke="white" stroke-width="2" mask="url(#path-1-outside-1_53_113)"/>
</g>
<defs>
<clipPath id="clip0_53_113">
<rect width="439" height="410" fill="white" transform="translate(-75)"/>
</clipPath>
</defs>
</svg>
