<svg width="32" height="32" viewBox="0 0 32 32" fill="none" xmlns="http://www.w3.org/2000/svg">
<rect width="32" height="32" rx="16" fill="white"/>
<path d="M5.14798 2.66667C4.25115 5.20635 4.17642 5.26984 2.83118 4.31746C1.4112 3.1746 1.4112 3.30159 1.33647 6.60318C1.26173 6.79365 1.48594 7.68254 1.78488 8.63492C2.15856 10.0317 2.00909 10.2857 1.11226 10.0317C-0.68139 9.39683 -0.232977 11.3651 1.93435 13.5238C3.20486 14.7937 3.5038 15.4921 2.83118 15.4921C1.48594 15.5556 5.8206 18.6667 7.24058 18.6667C8.1374 18.6667 8.21214 18.8571 7.53952 19.5556C6.8669 20.254 6.94163 20.5079 7.9132 20.8254C10.4542 21.6508 12.8457 21.1429 15.0878 19.3016C17.7035 17.0794 18.3014 17.2063 17.5541 19.8095C17.2551 21.1429 16.3583 22.0317 14.5647 22.7302C11.4258 24 9.48264 24 6.64269 22.7302C3.72801 21.4603 3.27959 21.9048 4.69957 24.3175C5.8206 26.1587 5.74586 26.2857 4.40063 26.2857C0.589114 26.2857 6.04481 30.0317 10.0805 30.1587C11.351 30.2222 11.7247 30.3492 10.9774 30.5397C8.81002 31.0476 10.3795 32 13.2942 32C14.8636 32 16.8815 31.5556 17.853 30.9841C19.7961 29.7778 21.6645 26.4762 21.6645 24.1905C21.6645 23.1746 22.5614 22.0317 24.355 20.8889C27.0455 19.1111 30.2591 14.2222 29.6612 12.7619C29.437 12.3175 29.0633 12.8254 28.7644 13.9048C28.0171 16.4444 25.0276 19.746 22.1129 21.2698C18.5256 23.1111 17.853 22.8571 18.3762 19.873C18.8246 17.5238 18.6751 17.1429 16.8067 15.873C15.1625 14.7302 14.7889 14.0952 15.1625 12.8254C15.611 11.3016 15.9099 11.1746 18.6751 11.4921C21.9635 11.873 25.4013 10.4762 25.4013 8.76191C25.4013 7.93651 24.8782 7.80953 23.0845 8.12699L20.7677 8.50794L23.0098 6.53968C26.1487 3.80952 27.9423 4.25397 28.2413 7.74603C28.3907 9.20635 28.7644 10.4127 29.1381 10.4127C29.5118 10.4127 29.6612 9.5873 29.437 8.57143C29.0634 7.17461 29.3623 6.53968 30.7823 5.71429C32.2022 4.8254 32.3517 4.57143 31.3801 4.06349C28.9886 2.79365 25.3266 3.36508 23.3087 5.33334C22.1877 6.34921 20.8424 7.2381 20.3193 7.2381C19.7214 7.2381 19.4225 7.61905 19.6467 8C19.7961 8.44444 20.9919 8.76191 22.3372 8.76191C25.1024 8.63492 25.4013 9.52381 22.8603 10.4762C19.7961 11.6825 15.9846 10.6032 12.6963 7.74603C8.95949 4.44445 8.73529 5.07937 12.3973 8.50794C13.892 9.90477 15.0131 11.1746 14.8636 11.3016C14.7141 11.4921 12.4721 10.2857 9.93105 8.63492C5.29745 5.77778 4.5501 4.69841 5.97007 2.79365C6.56796 1.96826 6.79216 2.03175 7.76372 3.11111C8.43634 3.80953 8.88476 4.06349 8.88476 3.74603C8.95949 3.36508 8.28687 2.4127 7.53952 1.58731L6.11954 7.15256e-07L5.14798 2.66667ZM30.6328 4.69842C30.6328 5.01588 30.3339 5.33334 29.9602 5.33334C29.5118 5.33334 28.9886 5.01588 28.7644 4.69842C28.5402 4.31746 28.8391 4.06349 29.437 4.06349C30.1096 4.06349 30.6328 4.31746 30.6328 4.69842ZM8.66055 8.88889C11.7994 10.7937 14.191 12.5714 13.9668 12.6984C13.2194 13.3333 4.7743 10.8571 3.57853 9.65079C2.30803 8.44444 1.71015 5.33334 2.68171 5.33334C2.90591 5.33334 5.59639 6.92064 8.66055 8.88889ZM8.28687 12.381C11.5005 13.1429 13.9668 14.0317 13.7426 14.2857C13.1447 15.1746 4.92377 14.9206 3.65327 14.0317C3.05539 13.6508 2.08382 12.7619 1.56068 12.127C0.215436 10.6667 0.962792 10.7302 8.28687 12.381ZM13.0699 16.7619C10.5289 18.2222 8.06267 18.3492 5.74586 17.2698C4.10168 16.5079 4.17642 16.5079 6.34375 16.0635C7.61425 15.8095 10.0805 15.619 11.9489 15.5556L15.312 15.4921L13.0699 16.7619ZM15.6857 17.3333C15.6857 18.3492 13.4436 19.9365 11.5005 20.3175C8.51108 20.9524 8.58581 20.127 11.7247 18.4127C14.8636 16.6984 15.6857 16.4444 15.6857 17.3333ZM12.3973 24.1905C13.892 23.9365 14.7889 24.0635 14.5647 24.4444C13.8173 25.3968 15.0878 25.0794 16.5825 23.9365C18.3014 22.6032 18.3762 23.873 16.6573 26.2857C14.4899 29.4603 10.6037 30.2222 6.49322 28.381L4.10168 27.2381L7.98793 26.9206C10.0805 26.7302 12.0984 26.3492 12.4721 26.0317C12.771 25.7143 11.9489 25.7143 10.6037 25.9683C8.73528 26.2857 7.76372 26.0952 6.64269 25.2698C4.5501 23.6825 4.92377 23.1111 7.53952 23.873C8.81002 24.254 10.9774 24.381 12.3973 24.1905ZM20.1698 25.3968C20.1698 28.0635 16.8067 31.3651 14.1162 31.3651C12.4721 31.3651 12.5468 31.2381 15.0878 28.9524C16.5825 27.6825 18.152 25.8413 18.6004 24.8254C19.6467 22.4762 20.1698 22.6667 20.1698 25.3968Z" fill="#23294F"/>
<path d="M26.5601 6.40002L25.6001 7.68002L26.8801 6.82669" stroke="#23294F" stroke-width="0.64" stroke-linecap="round"/>
</svg>
