<svg width="352" height="145" viewBox="0 0 352 145" fill="none" xmlns="http://www.w3.org/2000/svg">
<path d="M19.3097 12.0784C15.9457 23.5817 15.6654 23.8693 10.6195 19.5555C5.29331 14.3791 5.29331 14.9542 5.01299 29.9085C4.73266 30.7712 5.57364 34.7974 6.69495 39.1111C8.09658 45.4379 7.53593 46.5882 4.17201 45.4379C-2.55584 42.5621 -0.873877 51.4771 7.2556 61.2549C12.0212 67.0065 13.1425 70.1699 10.6195 70.1699C5.57364 70.4575 21.8326 84.549 27.1588 84.549C30.5227 84.549 30.8031 85.4118 28.2801 88.5752C25.7572 91.7386 26.0375 92.8889 29.6818 94.3268C39.2129 98.0653 48.1833 95.7647 56.5931 87.4248C66.4046 77.3595 68.6472 77.9346 65.8439 89.7255C64.7226 95.7647 61.3587 99.7908 54.6309 102.954C42.8571 108.706 35.5686 108.706 24.9162 102.954C13.9834 97.2026 12.3015 99.2157 17.6277 110.144C21.8326 118.484 21.5523 119.059 16.5064 119.059C2.20972 119.059 22.6736 136.026 37.8112 136.601C42.5768 136.889 43.9784 137.464 41.1752 138.327C33.0457 140.627 38.9325 144.941 49.8653 144.941C55.7522 144.941 63.321 142.928 66.9652 140.34C74.2537 134.876 81.2619 119.922 81.2619 109.569C81.2619 104.967 84.6258 99.7908 91.3537 94.6144C101.445 86.5621 113.5 64.4183 111.257 57.8039C110.416 55.7908 109.014 58.0915 107.893 62.9804C105.09 74.4837 93.8766 89.4379 82.9439 96.3399C69.4882 104.68 66.9652 103.529 68.9275 90.0131C70.6095 79.3725 70.0488 77.647 63.0407 71.8954C56.8735 66.7189 55.4718 63.8431 56.8735 58.0915C58.5554 51.1895 59.6767 50.6144 70.0488 52.0523C82.3832 53.7778 95.2783 47.451 95.2783 39.6863C95.2783 35.9477 93.316 35.3725 86.5881 36.8105L77.898 38.5359L86.3078 29.6209C98.0815 17.2549 104.809 19.268 105.931 35.085C106.491 41.6993 107.893 47.1634 109.295 47.1634C110.696 47.1634 111.257 43.4248 110.416 38.8235C109.014 32.4967 110.136 29.6209 115.462 25.8824C120.788 21.8562 121.349 20.7059 117.704 18.4052C108.734 12.6536 94.9979 15.2418 87.4291 24.1569C83.2242 28.7582 78.1783 32.7843 76.216 32.7843C73.9734 32.7843 72.8521 34.5098 73.6931 36.2353C74.2537 38.2484 78.739 39.6863 83.7849 39.6863C94.157 39.1111 95.2783 43.1373 85.7471 47.451C74.2537 52.915 59.9571 48.0261 47.6227 35.085C33.6063 20.1307 32.7654 23.0065 46.5014 38.5359C52.1079 44.8627 56.3128 50.6144 55.7522 51.1895C55.1915 52.0523 46.7817 46.5882 37.2506 39.1111C19.8703 26.1699 17.067 21.281 22.3933 12.6536C24.6359 8.91502 25.4769 9.20262 29.1211 14.0915C31.644 17.2549 33.326 18.4052 33.326 16.9673C33.6063 15.2418 31.0834 10.9281 28.2801 7.18954L22.9539 0L19.3097 12.0784ZM114.901 21.281C114.901 22.719 113.78 24.1569 112.378 24.1569C110.696 24.1569 108.734 22.719 107.893 21.281C107.052 19.5556 108.173 18.4052 110.416 18.4052C112.939 18.4052 114.901 19.5556 114.901 21.281ZM32.485 40.2614C44.2588 48.8889 53.2292 56.9412 52.3882 57.5163C49.585 60.3922 17.908 49.1765 13.4228 43.7124C8.65724 38.2484 6.41462 24.1569 10.0589 24.1569C10.8999 24.1569 20.9916 31.3464 32.485 40.2614ZM31.0834 56.0784C43.1375 59.5294 52.3882 63.5555 51.5473 64.7059C49.3046 68.732 18.4687 67.5817 13.7031 63.5555C11.4605 61.8301 7.81626 57.8039 5.85397 54.9281C0.808084 48.3137 3.61135 48.6013 31.0834 56.0784ZM49.0243 75.9216C39.4932 82.5359 30.2424 83.1111 21.5523 78.2222C15.3851 74.7712 15.6654 74.7712 23.7949 72.7582C28.5605 71.6078 37.8112 70.7451 44.8194 70.4575L57.4341 70.1699L49.0243 75.9216ZM58.8358 78.5098C58.8358 83.1111 50.4259 90.3006 43.1374 92.0261C31.9244 94.902 32.2047 91.1634 43.9784 83.3987C55.7522 75.634 58.8358 74.4837 58.8358 78.5098ZM46.5014 109.569C52.1079 108.418 55.4718 108.993 54.6309 110.719C51.8276 115.033 56.5931 113.595 62.1997 108.418C68.6472 102.379 68.9275 108.131 62.48 119.059C54.3505 133.438 39.7735 136.889 24.3555 128.549L15.3851 123.373L29.9621 121.935C37.8112 121.072 45.3801 119.346 46.7817 117.908C47.903 116.471 44.8194 116.471 39.7735 117.621C32.7654 119.059 29.1211 118.196 24.9162 114.458C17.067 107.268 18.4687 104.68 28.2801 108.131C33.0457 109.856 41.1752 110.431 46.5014 109.569ZM75.6554 115.033C75.6554 127.111 63.0407 142.065 52.9489 142.065C46.7817 142.065 47.062 141.49 56.5931 131.137C62.1997 125.386 68.0865 117.046 69.7685 112.444C73.6931 101.804 75.6554 102.667 75.6554 115.033Z" fill="#23294F"/>
<path d="M99.8668 26.0452L96.7131 28.2156L100.918 26.7686" stroke="#23294F" stroke-width="2.07059" stroke-linecap="round"/>
<path d="M128.439 75.3467C128.439 94.3271 136.779 94.3271 137.9 75.3467C138.741 62.6931 136.008 63.2683 143.577 62.4056C148.062 61.8304 152.547 62.9807 153.949 64.9938C155.07 67.2945 157.033 67.8696 157.874 67.0069C162.359 62.4056 155.07 58.9546 142.175 59.2422L128.439 59.8173V75.3467Z" fill="#23294F"/>
<path d="M224.059 75.0425C228.544 83.9575 233.31 90.5719 235.552 90.2843C240.037 89.134 256.857 59.2255 252.932 59.2255C251.25 59.2255 247.326 64.9771 243.962 72.1667C240.598 79.3562 236.954 85.1078 236.113 85.1078C235.272 85.1078 231.628 79.3562 228.264 72.1667C224.9 64.9771 220.975 59.2255 219.293 59.2255C217.892 59.2255 219.854 66.415 224.059 75.0425Z" fill="#23294F"/>
<path d="M271.406 61.7307C268.883 63.4562 267.201 68.9203 267.201 74.9595C267.201 87.3255 271.126 90.7765 287.104 90.7765C298.317 90.7765 304.765 86.7503 300.56 82.7242C299.439 81.5739 297.757 82.4366 297.196 84.1621C295.234 89.6262 275.05 89.051 272.807 83.2994C271.966 80.7111 271.126 78.1229 271.126 77.5477C271.126 76.9726 278.134 76.3974 286.543 76.3974C299.439 76.3974 301.961 75.5347 301.961 71.2209C301.961 68.3451 300.56 64.6066 298.598 62.5935C294.673 58.5673 277.012 57.9922 271.406 61.7307ZM295.794 68.3451C296.635 72.6588 294.673 73.5216 284.021 73.5216C274.77 73.5216 271.126 72.3713 271.126 69.4954C271.126 60.868 294.112 59.7177 295.794 68.3451Z" fill="#23294F"/>
<path d="M201.046 88.3001C203.571 86.577 205.258 81.1145 205.263 75.0753C205.274 62.7093 201.353 59.2546 185.374 59.2394C174.161 59.2288 167.71 63.2488 171.911 67.279C173.031 68.4303 174.714 67.5692 175.276 65.8442C177.244 60.382 197.427 60.9763 199.664 66.7301C200.503 69.3191 201.341 71.9082 201.341 72.4833C201.34 73.0585 194.332 73.627 185.922 73.619C173.027 73.6068 170.503 74.4672 170.499 78.7809C170.497 81.6567 171.895 85.3966 173.855 87.4115C177.776 91.4414 195.436 92.0333 201.046 88.3001ZM176.664 81.6626C175.827 77.348 177.79 76.4871 188.442 76.4972C197.693 76.506 201.336 77.6598 201.334 80.5356C201.326 89.1631 178.338 90.2916 176.664 81.6626Z" fill="#23294F"/>
<path d="M315.557 75.1648C315.557 83.5047 316.959 90.4066 318.361 90.4066C320.043 90.4066 321.164 84.655 321.164 77.4654C321.164 66.2498 322.005 64.5243 327.892 62.7988C341.347 59.3478 340.997 63.0864 341.838 77.753C342.959 94.7203 352 94.7203 352 77.753C352 61.936 348.075 58.4851 329.854 59.3478L315.557 59.923V75.1648Z" fill="#23294F"/>
</svg>
