<svg width="70" height="70" viewBox="0 0 70 70" fill="none" xmlns="http://www.w3.org/2000/svg">
<g clip-path="url(#clip0_101_61)">
<circle cx="35" cy="35" r="35" fill="#C0C5EC"/>
<path fill-rule="evenodd" clip-rule="evenodd" d="M11.9781 77.9968L12.0844 78L12.174 77.9873C12.5721 77.9113 14.1688 77.4458 14.1688 74.8333C14.1688 59.0918 22.5667 46.3333 32.9281 46.3333C34.3059 46.3333 35.6941 46.3333 37.0719 46.3333C47.4312 46.3333 55.8312 59.0918 55.8312 74.8333C55.8312 74.8998 55.8312 74.9632 55.8354 75.0265C55.8667 76.0557 56.1543 76.727 56.5087 77.1672C56.8797 77.6865 57.3737 78 57.9156 78C57.9156 78 60 77.8195 60 74.8333C60 55.5958 49.7344 40 37.0719 40C35.6941 40 34.3059 40 32.9281 40C20.2655 40 10 55.5958 10 74.8333C10 74.675 10.0063 74.542 10.0167 74.4312C10.0063 74.561 10 74.6972 10 74.8333C10 76.5275 10.8754 77.9113 11.9781 77.9968Z" fill="#23294F"/>
<path fill-rule="evenodd" clip-rule="evenodd" d="M34.6081 6C26.5454 6 20 12.5388 20 20.5935C20 28.6483 26.5454 35.1871 34.6081 35.1871C42.6709 35.1871 49.2163 28.6483 49.2163 20.5935C49.2163 12.5388 42.6709 6 34.6081 6ZM34.6081 11.8304C39.4493 11.8304 43.38 15.7572 43.38 20.5935C43.38 25.4299 39.4493 29.3567 34.6081 29.3567C29.767 29.3567 25.8363 25.4299 25.8363 20.5935C25.8363 15.7572 29.767 11.8304 34.6081 11.8304Z" fill="#23294F"/>
</g>
<defs>
<clipPath id="clip0_101_61">
<rect width="70" height="70" rx="35" fill="white"/>
</clipPath>
</defs>
</svg>
