<svg width="782" height="476" viewBox="0 0 782 476" fill="none" xmlns="http://www.w3.org/2000/svg">
<path d="M567.521 480.151C566.946 480.148 566.374 480.067 565.821 479.912C564.243 479.461 562.909 478.402 562.113 476.967C561.316 475.533 561.121 473.841 561.572 472.263L608.347 308.538C608.823 306.99 609.887 305.69 611.31 304.917C612.734 304.145 614.404 303.962 615.962 304.407C617.519 304.852 618.84 305.89 619.641 307.298C620.442 308.706 620.658 310.372 620.245 311.938L573.47 475.662C573.1 476.955 572.32 478.093 571.247 478.903C570.173 479.712 568.865 480.151 567.521 480.151Z" fill="#F1F1F1"/>
<path d="M532.52 117.626C531.707 117.629 530.902 117.472 530.15 117.163C529.398 116.855 528.715 116.401 528.138 115.828C526.974 114.672 526.316 113.1 526.311 111.458C526.305 109.817 526.952 108.241 528.109 107.077C529.266 105.912 530.837 105.255 532.479 105.25H532.52C534.161 105.25 535.735 105.902 536.896 107.062C538.056 108.223 538.708 109.797 538.708 111.438C538.708 113.079 538.056 114.653 536.896 115.814C535.735 116.974 534.161 117.626 532.52 117.626Z" fill="#F1F1F1"/>
<path d="M796.577 388.234L717.689 486.85C713.453 486.53 709.372 485.122 705.84 482.761C702.309 480.401 699.447 477.168 697.532 473.376L735.907 425.405L738.539 422.781C739.453 421.83 740.171 420.709 740.651 419.481L806.239 337.499C806.764 336.866 807.159 336.135 807.399 335.349C807.639 334.562 807.72 333.736 807.637 332.917C807.554 332.099 807.308 331.306 806.915 330.584C806.522 329.861 805.989 329.225 805.346 328.711C804.704 328.197 803.966 327.816 803.175 327.591C802.384 327.366 801.556 327.3 800.74 327.399C799.923 327.497 799.135 327.757 798.42 328.164C797.705 328.571 797.078 329.116 796.577 329.767L735.437 406.188C734.127 405.559 732.698 405.216 731.245 405.182H669.99C691.078 389.8 709.995 371.644 726.229 351.204C756.955 312.374 772.542 271.053 772.542 228.387C772.542 133.781 704.487 78.8959 682.556 63.6563L688.86 57.3442C689.585 56.6214 690.119 55.7299 690.414 54.7496C690.709 53.7693 690.756 52.7309 690.551 51.728C690.346 50.7251 689.894 49.7889 689.238 49.0035C688.581 48.2181 687.74 47.608 686.789 47.2283L632.208 25.3962V17.888C632.208 16.2468 631.556 14.6727 630.396 13.5122C629.235 12.3517 627.661 11.6997 626.02 11.6997H585.425V6.19639C585.425 5.1419 585.156 4.10442 584.642 3.18334C584.129 2.26226 583.389 1.48789 582.492 0.933254C581.595 0.378616 580.571 0.0625563 579.518 0.0146847C578.465 -0.0331869 577.416 0.188792 576.473 0.659798L530.82 23.4901C511.574 23.2931 492.78 29.3244 477.243 40.6835C461.705 52.0427 450.257 68.1211 444.605 86.5198C444.547 86.8466 444.516 87.1778 444.515 87.5099C444.48 87.7257 444.458 87.9432 444.449 88.1615C444.456 88.9063 444.596 89.6441 444.861 90.3401V90.3895C444.861 90.4555 444.96 90.5048 444.993 90.5708C445.254 91.1758 445.614 91.7336 446.058 92.2211C446.227 92.3991 446.409 92.5645 446.602 92.7161C446.775 92.9041 446.963 93.0778 447.163 93.2358C471.999 108.356 500.345 116.745 529.409 117.576L568.354 166.258C531.068 174.509 502.123 203.676 457.452 259.642L301.88 454.391C299.673 456.999 298.255 460.181 297.79 463.566C297.324 466.95 297.832 470.397 299.252 473.504C300.673 476.611 302.948 479.25 305.812 481.112C308.677 482.974 312.012 483.982 315.428 484.02C318.566 484.009 321.647 483.185 324.372 481.627L397.137 440.372L175.911 961.835C175.512 962.776 175.352 963.801 175.446 964.819C175.539 965.836 175.883 966.816 176.447 967.668C177.011 968.52 177.777 969.22 178.677 969.704C179.577 970.188 180.583 970.441 181.605 970.442C181.925 970.442 182.245 970.417 182.562 970.367C185.136 969.963 244.535 960.045 267.605 912.132C280.806 909.417 331.641 896.265 351.031 851.387L479.664 546.497C479.71 546.345 479.749 546.19 479.779 546.034L549.731 494.111L602.612 547C596.261 548.684 590.352 551.731 585.296 555.928C580.24 560.124 576.157 565.37 573.331 571.303C570.505 577.235 569.003 583.711 568.93 590.281C568.857 596.852 570.215 603.359 572.909 609.353L282.052 972.917C281.028 974.199 280.556 975.836 280.738 977.467C280.921 979.098 281.744 980.59 283.026 981.614C284.308 982.637 285.944 983.109 287.574 982.928C289.204 982.747 290.696 981.927 291.723 980.648L579.922 620.401C585.277 626.645 592.227 631.319 600.03 633.924L328.836 972.917C327.847 974.201 327.401 975.822 327.595 977.432C327.789 979.041 328.607 980.511 329.873 981.524C331.139 982.537 332.751 983.012 334.364 982.849C335.977 982.685 337.461 981.894 338.498 980.648L614.015 636.251H614.329C626.359 636.234 637.891 631.447 646.398 622.94C654.905 614.434 659.692 602.901 659.709 590.87C659.703 589.449 659.399 588.045 658.818 586.747C658.237 585.45 657.391 584.289 656.334 583.338L717.004 507.502C717.829 507.544 718.654 507.626 719.562 507.626C731.592 507.609 743.125 502.822 751.632 494.315C760.138 485.808 764.925 474.276 764.942 462.246C764.92 460.521 764.459 458.831 763.603 457.334C762.747 455.837 761.524 454.583 760.05 453.689L806.255 395.932C807.244 394.648 807.689 393.027 807.495 391.417C807.302 389.808 806.484 388.338 805.218 387.325C803.952 386.313 802.34 385.837 800.727 386C799.114 386.164 797.63 386.955 796.593 388.201L796.577 388.234ZM707.994 440.488L695.741 455.81C696.632 452.556 698.178 449.518 700.285 446.883C702.392 444.248 705.015 442.072 707.994 440.488ZM657.737 398.581C657.613 398.663 657.498 398.738 657.391 398.82L648.834 405.174H593.61L619.576 314.289C621.325 313.265 623.05 312.234 624.7 311.17C625.459 310.683 626.169 310.171 626.911 309.676C628.495 308.603 630.047 307.523 631.548 306.376C632.374 305.774 633.124 305.163 633.9 304.552C635.27 303.48 636.598 302.38 637.885 301.252C638.611 300.625 639.337 299.998 640.039 299.354C641.367 298.141 642.621 296.879 643.859 295.65C644.403 295.089 644.981 294.544 645.509 294C647.217 292.16 648.809 290.295 650.361 288.372C650.451 288.265 650.517 288.15 650.6 288.042C652.019 286.227 653.339 284.37 654.585 282.473C655.006 281.837 655.41 281.177 655.773 280.526C656.359 279.577 656.986 278.644 657.523 277.679L713.324 347.425C697.254 366.969 678.546 384.186 657.737 398.581ZM557.628 472.84L532.413 447.625L536.81 443.219C537.386 442.645 537.842 441.964 538.153 441.213C538.465 440.463 538.625 439.658 538.626 438.846V360.197L604.188 323.068L562.405 469.317L557.628 472.84ZM513.452 443.244C512.357 444.365 511.538 445.725 511.058 447.217C510.578 448.709 510.452 450.292 510.688 451.841L509.038 453.492L472.733 417.187L460.654 405.116L495.605 385.14L526.224 367.648V436.28L522.025 440.48C520.477 440.252 518.897 440.385 517.41 440.871C515.922 441.356 514.567 442.18 513.452 443.277V443.244ZM587.892 425.157C588.861 425.517 589.88 425.723 590.912 425.768H621.045L578.75 457.122L587.892 425.157ZM579.229 24.0677H619.824V29.571C619.817 30.8125 620.185 32.0275 620.878 33.0575C621.571 34.0875 622.558 34.885 623.71 35.3469L673.472 55.2482L668.414 60.3063C667.747 60.9728 667.242 61.7828 666.936 62.6743C666.63 63.5658 666.532 64.5149 666.649 65.4501C666.766 66.3853 667.095 67.2817 667.611 68.0704C668.127 68.859 668.817 69.5195 669.627 70.0012C670.526 70.5375 760.157 124.986 760.157 228.421C759.45 268.015 745.785 306.287 721.253 337.375L663.207 265.005C663.422 264.362 663.579 263.702 663.785 263.058C664.057 262.175 664.321 261.301 664.561 260.41C664.924 259.065 665.237 257.711 665.526 256.342C665.708 255.517 665.906 254.626 666.054 253.759C666.326 252.258 666.516 250.739 666.689 249.221C666.78 248.479 666.904 247.736 666.962 246.985C667.16 244.716 667.284 242.422 667.284 240.112C667.259 219.869 659.207 200.462 644.893 186.148C630.579 171.834 611.172 163.781 590.929 163.757C588.528 163.757 586.019 163.898 583.404 164.096C583.09 164.096 582.818 164.096 582.504 164.096L541.505 112.849L570.937 93.2197C571.486 92.8465 571.968 92.3833 572.364 91.8499C572.503 91.6506 572.628 91.441 572.735 91.2229C572.922 90.9632 573.085 90.6867 573.222 90.3975C573.222 90.3068 573.222 90.2163 573.272 90.1256C573.44 89.6158 573.54 89.0855 573.569 88.5493C573.612 88.3232 573.64 88.0943 573.651 87.8644C573.615 87.2378 573.484 86.6203 573.263 86.0328C573.241 85.9018 573.211 85.7724 573.173 85.645C566.363 69.7047 554.11 56.7032 538.601 48.9612V33.4573L572.999 16.2543V17.9041C573.003 18.7182 573.166 19.5239 573.481 20.2746C573.796 21.0252 574.256 21.7063 574.835 22.2789C575.414 22.8514 576.1 23.3039 576.854 23.6109C577.608 23.9179 578.415 24.0731 579.229 24.0677ZM530.597 105.233C508.324 104.644 486.435 99.2982 466.396 89.556C495.011 81.7844 525.189 81.8558 553.766 89.7625L530.597 105.233ZM526.266 35.9245V52.9381C526.27 54.2177 526.668 55.4645 527.407 56.5097C528.145 57.5549 529.187 58.3478 530.391 58.7799C539.545 62.7818 547.544 69.0246 553.651 76.9322C523.291 69.1188 491.402 69.5027 461.239 78.0457C467.227 65.7838 476.444 55.3856 487.898 47.9686C499.352 40.5516 512.611 36.3962 526.249 35.9492L526.266 35.9245ZM318.274 470.893C317.152 471.593 315.809 471.849 314.508 471.61C313.207 471.37 312.043 470.652 311.244 469.597C310.35 468.581 309.872 467.264 309.906 465.911C309.94 464.557 310.482 463.266 311.426 462.295L467.106 267.34C513.311 209.476 540.094 182.734 576.844 177.206C578.032 177.033 579.221 176.877 580.425 176.745C583.906 176.336 587.407 176.124 590.912 176.109C607.874 176.131 624.134 182.879 636.128 194.872C648.121 206.866 654.869 223.126 654.891 240.087C654.891 242.15 654.794 244.196 654.602 246.226C654.052 252.274 652.646 258.214 650.427 263.867C642.549 281.686 628.692 296.191 611.251 304.874L318.274 470.893ZM192.1 955.416L414.877 430.397L433.788 419.671L449.077 411.007L461.107 423.045L387.467 598.602C386.956 599.058 386.524 599.596 386.188 600.194L257.819 904.21C243.916 936.249 209.98 950.161 192.1 955.4V955.416ZM459.787 561.843L339.644 846.586C325.783 878.674 291.846 892.544 273.958 897.791L397.146 607.422L429.589 583.346L459.787 561.843ZM422.262 573.395L406.832 584.385L470.522 432.567L504.673 466.718C505.835 467.875 507.409 468.525 509.05 468.525C510.69 468.525 512.264 467.875 513.427 466.718L517.825 462.312L540.886 485.373L422.262 573.395ZM566.473 481.768L568.882 479.977C569.708 479.79 570.487 479.434 571.167 478.929C571.848 478.425 572.415 477.784 572.834 477.048L641.804 425.85H692.532C684.498 431.771 678.651 440.183 675.9 449.776C673.149 459.369 673.65 469.602 677.325 478.88L624.609 544.764V544.178C624.611 542.823 624.346 541.482 623.827 540.23C623.309 538.978 622.549 537.841 621.589 536.884L566.473 481.768ZM606.333 567.578L589.831 588.247C590.334 583.588 592.153 579.169 595.076 575.506C597.998 571.843 601.903 569.087 606.333 567.561V567.578ZM614.65 615.657C614.535 615.657 614.419 615.657 614.296 615.657C610.057 615.645 605.893 614.543 602.204 612.456C598.514 610.37 595.424 607.369 593.231 603.742L683.951 490.34C689.04 496.775 695.774 501.715 703.439 504.639L614.65 615.657Z" fill="#F1F1F1"/>
<path d="M574.738 47.9918C574.738 50.3042 575.424 52.5646 576.708 54.4872C577.993 56.4099 579.819 57.9086 581.956 58.7935C584.092 59.6784 586.443 59.9099 588.711 59.4588C590.979 59.0077 593.062 57.894 594.697 56.2589C596.332 54.6238 597.446 52.5406 597.897 50.2726C598.348 48.0046 598.116 45.6542 597.231 43.5178C596.347 41.3814 594.848 39.5555 592.925 38.2708C591.003 36.9861 588.742 36.3002 586.43 36.3002C584.894 36.2991 583.373 36.6009 581.954 37.188C580.535 37.7752 579.246 38.6363 578.16 39.7222C577.074 40.808 576.213 42.0973 575.626 43.5163C575.039 44.9353 574.737 46.4561 574.738 47.9918Z" fill="url(#paint0_linear_76_94)"/>
<defs>
<linearGradient id="paint0_linear_76_94" x1="567.521" y1="41.2717" x2="567.521" y2="64.655" gradientUnits="userSpaceOnUse">
<stop stop-color="white"/>
<stop offset="1" stop-color="white"/>
</linearGradient>
</defs>
</svg>
