<svg width="570" height="455" viewBox="0 0 570 455" fill="none" xmlns="http://www.w3.org/2000/svg">
<g clip-path="url(#clip0_176_68)">
<path d="M480.159 266.288C433.864 217.413 358.216 215.362 309.341 261.657C260.466 307.952 258.415 383.6 304.71 432.475C351.005 481.351 426.653 483.401 475.528 437.106C524.403 390.811 526.454 315.163 480.159 266.288ZM329.774 408.734C296.537 373.644 297.992 319.959 333.082 286.721C368.172 253.484 421.858 254.939 455.095 290.029C488.333 325.119 486.877 378.805 451.787 412.042C416.697 445.28 363.012 443.824 329.774 408.734Z" fill="#23294F"/>
<path d="M608.287 494.431L586.329 448.658L598.004 423.332L647.207 410.014C658.287 406.651 667.126 395.902 667.456 383.7L669.044 325.134C669.375 312.933 661.132 301.72 650.25 297.762L601.841 281.797L591.555 255.877L615.961 211.36C621.107 201.732 620.25 188.277 611.941 179.505L571.581 136.896C563.272 128.123 549.883 126.539 539.924 133.595L494.15 155.554C485.775 149.222 477.333 145.33 467.638 142.625L454.32 93.4226C450.957 82.3422 440.208 73.5035 428.006 73.1728L369.44 71.585C357.239 71.2542 346.026 79.4974 342.068 90.3794L326.169 136.347C317.529 139.776 307.636 144.392 298.996 147.821L254.479 123.415C244.85 118.269 231.396 119.126 222.623 127.435L180.014 167.795C171.242 176.104 169.658 189.493 175.461 200.639L197.419 246.413L185.744 271.738L136.541 285.056C125.461 288.419 116.622 299.168 116.292 311.37L114.704 369.936C114.373 382.137 122.616 393.35 133.498 397.308L181.907 413.273L192.193 439.193L166.533 484.897C161.388 494.526 162.245 507.98 170.554 516.753L210.914 559.362C219.223 568.134 232.611 569.718 242.505 565.102L289.531 541.957L314.856 553.632L328.175 602.835C331.538 613.915 342.287 622.754 354.489 623.084L413.055 624.672C425.256 625.003 436.469 616.76 440.427 605.878L456.392 557.469L482.312 547.183L528.016 572.843C537.644 577.988 551.099 577.131 559.871 568.822L602.48 528.462C611.253 520.153 614.09 505.577 608.287 494.431ZM539.89 540.197L483.371 508.139L475.918 512.821C463.584 517.371 451.25 521.92 438.917 526.47L429.089 528.646L409.101 590.376L360.295 589.053L343.68 526.33L333.985 523.625C320.663 519.601 308.594 514.39 297.778 507.991L290.59 502.912L232.417 531.861L199.179 496.771L231.237 440.252L226.555 432.799C222.005 420.465 217.456 408.131 212.906 395.798L210.73 385.971L149 365.982L150.323 317.176L213.046 300.561L215.751 290.867C219.775 277.544 224.986 265.475 231.385 254.66L236.464 247.471L207.515 189.298L242.605 156.06L295.497 186.799L304.137 183.37C316.537 176.38 328.87 171.83 342.391 168.534L352.218 166.358L373.394 105.881L422.2 107.204L437.627 168.674L447.322 171.379C460.645 175.403 472.714 180.614 484.716 188.266L493.158 192.158L550.078 164.396L583.316 199.486L552.511 254.818L555.94 263.458C561.743 274.605 566.292 286.939 569.589 300.459L571.764 310.287L633.495 330.275L632.172 379.081L569.449 395.696L566.744 405.391C562.72 418.713 557.509 430.782 551.11 441.598L546.031 448.786L574.98 506.959L539.89 540.197Z" fill="#23294F"/>
</g>
<defs>
<clipPath id="clip0_176_68">
<rect width="539.08" height="573.258" fill="white" transform="translate(368.191 -58) rotate(46.5529)"/>
</clipPath>
</defs>
</svg>
