<svg width="44" height="44" viewBox="0 0 44 44" fill="none" xmlns="http://www.w3.org/2000/svg">
<path fill-rule="evenodd" clip-rule="evenodd" d="M42.8268 22C42.8268 33.5058 33.4993 42.8333 21.9935 42.8333C10.4876 42.8333 1.16016 33.5058 1.16016 22C1.16016 10.494 10.4876 1.16663 21.9935 1.16663C33.4993 1.16663 42.8268 10.494 42.8268 22ZM22.74 16.5467C20.7137 17.3895 16.6638 19.1339 10.5905 21.78C9.6043 22.1722 9.08768 22.556 9.04064 22.931C8.96116 23.5652 9.75513 23.8147 10.8363 24.1547C10.9834 24.201 11.1358 24.2489 11.292 24.2995C12.3557 24.6454 13.7866 25.05 14.5304 25.066C15.2052 25.0806 15.9583 24.8025 16.7897 24.2314C22.4641 20.401 25.3935 18.465 25.5773 18.4231C25.7071 18.3937 25.8868 18.3566 26.0087 18.465C26.1306 18.5733 26.1185 18.7783 26.1056 18.8333C26.0271 19.1687 22.9104 22.0662 21.2975 23.5656C20.7948 24.0331 20.4381 24.3645 20.3652 24.4404C20.2018 24.61 20.0354 24.7704 19.8754 24.9245C18.8873 25.8773 18.146 26.5916 19.9164 27.7583C20.7671 28.3189 21.4479 28.7825 22.1271 29.245C22.8687 29.7502 23.6085 30.2539 24.5658 30.8814C24.8096 31.0412 25.0425 31.2073 25.2693 31.3689C26.1325 31.9843 26.9079 32.5372 27.866 32.4489C28.4227 32.3979 28.9977 31.8743 29.2898 30.3131C29.98 26.6235 31.3366 18.6291 31.6502 15.335C31.6777 15.0464 31.6431 14.677 31.6152 14.5149C31.5875 14.3527 31.5296 14.1217 31.3187 13.9506C31.0691 13.7481 30.6837 13.7054 30.5114 13.7083C29.7279 13.7223 28.5256 14.1403 22.74 16.5467Z" stroke="#23294F" stroke-width="2.08333" stroke-linejoin="round"/>
</svg>
