<svg width="44" height="44" viewBox="0 0 44 44" fill="none" xmlns="http://www.w3.org/2000/svg">
<path d="M4.08333 4.08333L3.34323 3.35021L3.352 3.34156L4.08333 4.08333ZM4.08333 39.9167L3.35021 40.6567L3.34156 40.6479L4.08333 39.9167ZM39.9166 39.9167L40.6568 40.6498L40.648 40.6585L39.9166 39.9167ZM39.9166 4.08333L40.6497 3.34323L40.6585 3.352L39.9166 4.08333ZM8.19444 13.8472L7.15298 13.8686C7.14725 13.5887 7.25442 13.3182 7.45035 13.1182C7.64629 12.9182 7.91446 12.8056 8.19444 12.8056V13.8472ZM23.8889 31.1806H24.9305C24.9305 31.7558 24.4641 32.2223 23.8889 32.2223V31.1806ZM23.8889 24.986H22.8472C22.8472 24.6919 22.9716 24.4115 23.1897 24.214C23.4078 24.0165 23.6993 23.9204 23.9922 23.9496L23.8889 24.986ZM31.0695 31.1806V32.2223C30.6166 32.2223 30.2157 31.9298 30.0776 31.4985L31.0695 31.1806ZM35.9999 31.1806L37.0055 30.9087C37.0901 31.2217 37.0243 31.5562 36.8272 31.8137C36.6299 32.0712 36.3243 32.2223 35.9999 32.2223V31.1806ZM28.8749 22.486L28.4107 23.4187C28.0714 23.2496 27.8503 22.9094 27.8343 22.5304C27.818 22.1515 28.0093 21.7937 28.3332 21.5965L28.8749 22.486ZM34.9583 13.8333V12.7917C35.2712 12.7917 35.5674 12.9323 35.7653 13.1747C35.9633 13.4171 36.0416 13.7355 35.9789 14.0421L34.9583 13.8333ZM30.4862 13.8333L29.4837 13.5504C29.6103 13.1016 30.0197 12.7917 30.4862 12.7917V13.8333ZM23.8889 20.6944L23.9993 21.7302C23.7055 21.7617 23.4122 21.6667 23.1924 21.4692C22.9726 21.2715 22.8472 20.99 22.8472 20.6944H23.8889ZM23.8889 13.8472V12.8056C24.4641 12.8056 24.9305 13.2719 24.9305 13.8472H23.8889ZM19.4028 13.8472H18.3612C18.3612 13.2719 18.8274 12.8056 19.4028 12.8056V13.8472ZM19.4028 25.8473H20.4445C20.4445 26.1679 20.2966 26.4708 20.0439 26.6683C19.791 26.8656 19.4614 26.9356 19.1501 26.8577L19.4028 25.8473ZM12.9722 13.8472V12.8056C13.5397 12.8056 14.0028 13.2598 14.0137 13.8272L12.9722 13.8472ZM0.125 21.1667C0.125 16.4807 0.122813 12.8636 0.498792 10.0545C0.878771 7.21546 1.66181 5.04765 3.34323 3.35021L4.82338 4.8164C3.58815 6.0634 2.9129 7.72204 2.56371 10.3309C2.21052 12.9697 2.20833 16.4221 2.20833 21.1667H0.125ZM0.125 22.8333V21.1667H2.20833V22.8333H0.125ZM3.34156 40.6479C1.66177 38.9442 0.878792 36.7744 0.498792 33.935C0.122813 31.126 0.125 27.5125 0.125 22.8333H2.20833C2.20833 27.5708 2.21052 31.0198 2.56371 33.6588C2.91285 36.2673 3.58823 37.9308 4.8251 39.1854L3.34156 40.6479ZM21.1666 43.875C16.4807 43.875 12.8636 43.8773 10.0545 43.5012C7.21544 43.1212 5.04765 42.3381 3.35021 40.6567L4.8164 39.1767C6.0634 40.4119 7.72204 41.0871 10.3309 41.4362C12.9697 41.7894 16.4221 41.7917 21.1666 41.7917V43.875ZM22.8333 43.875H21.1666V41.7917H22.8333V43.875ZM40.648 40.6585C38.9443 42.3383 36.7743 43.1212 33.9351 43.5012C31.126 43.8773 27.5124 43.875 22.8333 43.875V41.7917C27.571 41.7917 31.0199 41.7894 33.6587 41.4362C36.2674 41.0871 37.9307 40.4117 39.1853 39.1748L40.648 40.6585ZM43.8749 22.8333C43.8749 27.5194 43.8772 31.1365 43.5012 33.9454C43.1212 36.7846 42.3383 38.9523 40.6568 40.6498L39.1766 39.1835C40.4118 37.9367 41.0872 36.2779 41.4364 33.6692C41.7895 31.0302 41.7916 27.5779 41.7916 22.8333H43.8749ZM43.8749 21.1667V22.8333H41.7916V21.1667H43.8749ZM40.6585 3.352C42.3382 5.05579 43.1212 7.22571 43.5012 10.0649C43.8772 12.874 43.8749 16.4876 43.8749 21.1667H41.7916C41.7916 16.4291 41.7895 12.9801 41.4364 10.3413C41.0872 7.73262 40.4118 6.06921 39.1749 4.81467L40.6585 3.352ZM22.8333 0.125C27.5193 0.125 31.1364 0.122813 33.9455 0.498792C36.7845 0.878771 38.9522 1.66179 40.6497 3.34323L39.1837 4.82338C37.9366 3.58815 36.278 2.9129 33.6691 2.56371C31.0303 2.21052 27.5778 2.20833 22.8333 2.20833V0.125ZM21.1666 0.125H22.8333V2.20833H21.1666V0.125ZM3.352 3.34156C5.05579 1.66177 7.22571 0.878813 10.0649 0.498792C12.874 0.122813 16.4876 0.125 21.1666 0.125V2.20833C16.4291 2.20833 12.9801 2.21052 10.3413 2.56371C7.73262 2.91285 6.06921 3.58823 4.81467 4.8251L3.352 3.34156ZM23.3332 32.2223C18.3287 32.2223 14.2927 30.4996 11.4959 27.2567C8.71977 24.0379 7.26731 19.4415 7.15298 13.8686L9.2359 13.8259C9.34379 19.0863 10.7107 23.1565 13.0735 25.896C15.4156 28.6115 18.838 30.139 23.3332 30.139V32.2223ZM23.3472 32.2223H23.3332V30.139H23.3472V32.2223ZM23.8889 32.2223H23.3472V30.139H23.8889V32.2223ZM24.9305 24.986V31.1806H22.8472V24.986H24.9305ZM30.0776 31.4985C29.1235 28.5233 26.7824 26.321 23.7855 26.0227L23.9922 23.9496C27.9674 24.3456 30.9043 27.2544 32.0614 30.8625L30.0776 31.4985ZM35.9999 32.2223H31.0695V30.139H35.9999V32.2223ZM34.1753 25.4092C35.4968 27.0217 36.4614 28.896 37.0055 30.9087L34.9945 31.4525C34.5272 29.7242 33.6989 28.1144 32.5639 26.7298L34.1753 25.4092ZM29.3391 21.5535C31.2055 22.4825 32.8539 23.7967 34.1753 25.4092L32.5639 26.7298C31.4291 25.345 30.0137 24.2165 28.4107 23.4187L29.3391 21.5535ZM33.6708 19.3929C32.5416 20.999 31.0935 22.3548 29.4168 23.3758L28.3332 21.5965C29.7653 20.7244 31.002 19.5662 31.9664 18.1948L33.6708 19.3929ZM35.9789 14.0421C35.5855 15.9654 34.7997 17.7869 33.6708 19.3929L31.9664 18.1948C32.9307 16.8231 33.6018 15.2673 33.9378 13.6246L35.9789 14.0421ZM30.4862 12.7917H34.9583V14.875H30.4862V12.7917ZM23.7785 19.6587C24.8128 19.5483 26.0055 18.8742 27.0937 17.7288C28.168 16.5977 29.0453 15.1029 29.4837 13.5504L31.4887 14.1163C30.9545 16.0082 29.9014 17.7981 28.6043 19.1635C27.3207 20.5146 25.7012 21.5487 23.9993 21.7302L23.7785 19.6587ZM24.9305 13.8472V20.6944H22.8472V13.8472H24.9305ZM19.4028 12.8056H23.8889V14.8889H19.4028V12.8056ZM18.3612 25.8473V13.8472H20.4445V25.8473H18.3612ZM14.0137 13.8272C14.1609 21.4846 17.4904 24.2954 19.6553 24.8367L19.1501 26.8577C15.7596 26.0102 12.089 22.0987 11.9307 13.8672L14.0137 13.8272ZM8.19444 12.8056H12.9722V14.8889H8.19444V12.8056Z" fill="#23294F"/>
</svg>
