<svg width="46" height="42" viewBox="0 0 46 42" fill="none" xmlns="http://www.w3.org/2000/svg">
<g id="vk-1-logo 1">
<g id="Base">
<path id="Vector" d="M16.7268 1.29932H29.7876C41.7176 1.29932 44.5338 3.92058 44.5338 14.9381V27C44.5338 38.0175 41.6954 40.6183 29.7655 40.6183H16.7046C4.77466 40.6183 1.95848 37.9971 1.95848 26.9795V14.9176C1.95848 3.92058 4.79683 1.29932 16.7268 1.29932Z" fill="#0723DB"/>
<g id="Clip path group">
<mask id="mask0_57_25" style="mask-type:luminance" maskUnits="userSpaceOnUse" x="1" y="1" width="44" height="40">
<g id="SVGID_2_">
<path id="Vector_2" d="M16.7268 1.29932H29.7876C41.7176 1.29932 44.5338 3.92058 44.5338 14.9381V27C44.5338 38.0175 41.6954 40.6183 29.7655 40.6183H16.7046C4.77466 40.6183 1.95848 37.9971 1.95848 26.9795V14.9176C1.95848 3.92058 4.79683 1.29932 16.7268 1.29932Z" fill="white"/>
</g>
</mask>
<g mask="url(#mask0_57_25)">
<path id="Vector_3" d="M0.849747 0.275391H45.6425V41.6423H0.849747V0.275391Z" fill="#0723DB"/>
</g>
</g>
</g>
<path id="Logo" fill-rule="evenodd" clip-rule="evenodd" d="M37.5266 14.3208C37.7262 13.7064 37.5266 13.2764 36.5952 13.2764H33.4908C32.6925 13.2764 32.3377 13.6655 32.1381 14.0955C32.1381 14.0955 30.5637 17.6588 28.3241 19.9524C27.5923 20.6282 27.2819 20.833 26.8828 20.833C26.6832 20.833 26.3949 20.6282 26.3949 20.0138V14.3208C26.3949 13.5835 26.1732 13.2764 25.5079 13.2764H20.6295C20.1417 13.2764 19.8312 13.6245 19.8312 13.9317C19.8312 14.628 20.94 14.7918 21.073 16.7168V20.9354C21.073 21.8569 20.8956 22.0208 20.4965 22.0208C19.4543 22.0208 16.882 18.4575 15.3741 14.3617C15.0637 13.604 14.7754 13.2764 13.9771 13.2764H10.8727C9.98569 13.2764 9.8083 13.6655 9.8083 14.0955C9.8083 14.8532 10.8505 18.6213 14.7089 23.5976C17.2811 26.9971 20.8956 28.8401 24.1775 28.8401C26.151 28.8401 26.3949 28.4306 26.3949 27.7343V25.154C26.3949 24.3348 26.5723 24.171 27.2154 24.171C27.681 24.171 28.4572 24.3758 30.2977 26.0141C32.4042 27.9596 32.759 28.8401 33.9343 28.8401H37.0387C37.9257 28.8401 38.3692 28.4306 38.1031 27.6319C37.8149 26.8332 36.817 25.666 35.4865 24.2734C34.7548 23.4747 33.6682 22.6351 33.3577 22.2051C32.8921 21.6521 33.0251 21.4064 33.3577 20.9354C33.3577 20.9149 37.1496 16 37.5266 14.3208Z" fill="#8391ED"/>
</g>
</svg>
