<svg width="48" height="35" viewBox="0 0 48 35" fill="none" xmlns="http://www.w3.org/2000/svg">
<path fill-rule="evenodd" clip-rule="evenodd" d="M41.9062 2.29169C43.8795 2.81989 45.4304 4.37056 45.9585 6.34381C46.9131 9.91673 46.9168 17.3759 46.9168 17.3759C46.9168 17.3759 46.9168 24.8348 45.9585 28.4077C45.4304 30.3811 43.8795 31.9317 41.9062 32.4598C38.3335 33.4182 24.0002 33.4182 24.0002 33.4182C24.0002 33.4182 9.66685 33.4182 6.09391 32.4598C4.12068 31.9317 2.57002 30.3811 2.04181 28.4077C1.0835 24.8348 1.0835 17.3759 1.0835 17.3759C1.0835 17.3759 1.0835 9.91673 2.04181 6.34381C2.57002 4.37056 4.12068 2.81989 6.09391 2.29169C9.66685 1.33337 24.0002 1.33337 24.0002 1.33337C24.0002 1.33337 38.3335 1.33337 41.9062 2.29169ZM31.3197 17.3765L19.4124 24.2507V10.5021L31.3197 17.3765Z" stroke="#23294F" stroke-width="2.08333" stroke-linejoin="round"/>
</svg>

