<svg width="1170" height="703" viewBox="0 0 1170 703" fill="none" xmlns="http://www.w3.org/2000/svg">
<g filter="url(#filter0_b_144_74)">
<path d="M289 177.5C233 203 138 27 102 27C66 27 -37.0746 209.163 -73.1336 213L-75.8068 609.826C-75.909 624.987 -62.6006 636.748 -47.5669 634.783L1177.36 474.655C1190.8 472.899 1200.39 460.762 1198.99 447.287L1175.13 217.334C1173.43 200.899 1153.71 193.447 1141.56 204.648C1136 209.772 1128.04 211.34 1120.95 208.705L977.738 155.436C971.802 153.228 966.925 148.849 964.092 143.185L914.861 44.7214C905.648 26.2952 879.352 26.2952 870.139 44.7214L797.381 190.237C791.129 202.743 775.836 207.689 763.444 201.215L561.445 95.6738C555.707 92.6755 549.083 92.0043 542.877 93.8485C501.395 106.175 337.762 155.296 289 177.5Z" fill="#E3E3E3"/>
</g>
<g filter="url(#filter1_b_144_74)">
<path d="M412.766 186.26C356.766 211.76 245 27 209 27C173 27 69.9254 209.163 33.8664 213L31.1932 609.826C31.091 624.987 44.3994 636.748 59.4331 634.783L1284.36 474.655C1297.8 472.899 1307.39 460.762 1305.99 447.287L1279 187.117C1278.36 180.929 1275.43 175.203 1270.79 171.057L1162.72 74.4702C1151.47 64.4149 1133.95 66.5421 1125.43 78.9968L1099.49 116.923C1088.73 132.658 1065.02 131.041 1056.49 113.99L1023.16 47.3224C1013.72 28.4351 986.56 29.0388 977.965 48.3271L903.83 214.696C897.961 227.867 882.197 233.356 869.417 226.678L683.715 129.652C678.882 127.127 673.433 126.238 668.06 127.171C629.039 133.953 462.104 163.794 412.766 186.26Z" fill="#C0C5EC"/>
</g>
<g filter="url(#filter2_b_144_74)">
<path d="M313.429 265.002C253.681 296.034 152.322 81.8567 113.913 81.8567C75.5037 81.8567 -34.4695 303.533 -72.9417 308.203L-75.8494 800.503C-75.9321 814.503 -64.5035 825.841 -50.505 825.648L1239.86 807.847C1253.72 807.656 1264.78 796.223 1264.51 782.364L1254.65 274.933C1254.53 268.555 1251.97 262.466 1247.5 257.912L1131.48 139.631C1120.01 127.947 1100.6 130.245 1092.19 144.281L1063.3 192.448C1052.86 209.861 1027.12 208.223 1018.97 189.629L980.216 101.231C971.47 81.2804 943.168 81.2804 934.423 101.231L855.061 282.268C849.024 296.04 832.283 301.404 819.366 293.706L604.425 165.616C598.165 161.885 590.68 161.041 583.779 163.381C538.693 178.666 365.254 238.086 313.429 265.002Z" fill="#C6C0EC"/>
</g>
<defs>
<filter id="filter0_b_144_74" x="-79.8074" y="23" width="1282.93" height="615.998" filterUnits="userSpaceOnUse" color-interpolation-filters="sRGB">
<feFlood flood-opacity="0" result="BackgroundImageFix"/>
<feGaussianBlur in="BackgroundImageFix" stdDeviation="2"/>
<feComposite in2="SourceAlpha" operator="in" result="effect1_backgroundBlur_144_74"/>
<feBlend mode="normal" in="SourceGraphic" in2="effect1_backgroundBlur_144_74" result="shape"/>
</filter>
<filter id="filter1_b_144_74" x="27.1926" y="23" width="1282.93" height="615.998" filterUnits="userSpaceOnUse" color-interpolation-filters="sRGB">
<feFlood flood-opacity="0" result="BackgroundImageFix"/>
<feGaussianBlur in="BackgroundImageFix" stdDeviation="2"/>
<feComposite in2="SourceAlpha" operator="in" result="effect1_backgroundBlur_144_74"/>
<feBlend mode="normal" in="SourceGraphic" in2="effect1_backgroundBlur_144_74" result="shape"/>
</filter>
<filter id="filter2_b_144_74" x="-79.8499" y="77.8569" width="1348.37" height="751.794" filterUnits="userSpaceOnUse" color-interpolation-filters="sRGB">
<feFlood flood-opacity="0" result="BackgroundImageFix"/>
<feGaussianBlur in="BackgroundImageFix" stdDeviation="2"/>
<feComposite in2="SourceAlpha" operator="in" result="effect1_backgroundBlur_144_74"/>
<feBlend mode="normal" in="SourceGraphic" in2="effect1_backgroundBlur_144_74" result="shape"/>
</filter>
</defs>
</svg>
