<?xml version="1.0" standalone="no"?>
<!DOCTYPE svg PUBLIC "-//W3C//DTD SVG 20010904//EN"
 "http://www.w3.org/TR/2001/REC-SVG-20010904/DTD/svg10.dtd">
<svg version="1.0" xmlns="http://www.w3.org/2000/svg"
 width="200.000000pt" height="200.000000pt" viewBox="0 0 200.000000 200.000000"
 preserveAspectRatio="xMidYMid meet">

<g transform="translate(0.000000,200.000000) scale(0.100000,-0.100000)"
fill="#000000" stroke="none">
<path d="M379 1242 c-12 -40 -13 -41 -31 -26 -19 18 -19 16 -20 -36 -1 -3 2
-17 6 -32 5 -22 3 -26 -9 -22 -24 10 -18 -21 11 -55 17 -20 21 -31 12 -31 -18
-1 40 -50 59 -50 12 0 13 -3 4 -14 -9 -11 -8 -15 5 -20 34 -13 66 -5 96 24 35
35 43 33 33 -8 -4 -21 -16 -35 -40 -46 -42 -20 -68 -20 -106 0 -39 20 -45 13
-26 -25 15 -29 14 -31 -4 -31 -51 0 22 -59 76 -61 17 -1 22 -3 12 -6 -29 -8
-8 -23 31 -23 21 0 48 7 61 16 26 19 51 71 51 107 0 16 12 34 36 52 36 28 79
105 71 128 -3 7 -8 -1 -12 -18 -10 -40 -50 -92 -89 -116 -48 -29 -57 -25 -50
22 6 37 4 43 -21 63 -22 18 -27 28 -22 48 6 24 10 26 47 21 44 -6 90 16 90 43
0 13 -7 15 -31 10 l-31 -6 30 31 c42 43 66 36 70 -19 2 -23 7 -42 12 -42 5 0
7 13 4 29 -5 22 -1 32 18 45 19 14 21 18 8 26 -32 20 -81 11 -108 -20 -15 -16
-33 -30 -40 -30 -8 0 -12 -6 -9 -12 2 -7 18 -12 36 -12 37 2 41 -12 7 -27 -41
-19 -92 -2 -136 43 -50 52 -53 42 -4 -12 20 -22 35 -42 33 -44 -2 -3 -32 16
-66 42 -62 45 -72 62 -53 92 8 13 11 12 24 -5 9 -11 15 -15 15 -10 1 6 -8 21
-18 34 l-19 25 -13 -42z m341 -32 c0 -5 -4 -10 -9 -10 -6 0 -13 5 -16 10 -3 6
1 10 9 10 9 0 16 -4 16 -10z m-294 -66 c42 -30 74 -58 71 -60 -10 -10 -123 29
-139 48 -17 19 -25 68 -12 68 3 0 39 -25 80 -56z m-5 -55 c43 -12 76 -26 73
-30 -8 -14 -118 -10 -135 4 -8 6 -21 20 -28 30 -18 23 -8 22 90 -4z m64 -69
c-34 -23 -67 -25 -98 -8 -22 12 -21 12 8 19 17 4 50 7 75 8 l45 1 -30 -20z
m35 -9 c0 -16 -30 -41 -56 -47 -40 -10 -39 3 3 30 42 27 53 31 53 17z m-44
-108 c20 4 32 2 29 -4 -10 -15 7 -10 27 8 23 21 24 1 1 -37 -29 -50 -81 -62
-136 -33 l-32 18 52 5 c28 3 55 9 60 14 4 5 -7 5 -25 1 -25 -5 -38 -2 -53 11
-28 25 -23 34 12 22 17 -6 46 -8 65 -5z m104 -19 c0 -42 -45 -94 -81 -94 -22
0 -21 2 13 38 20 20 41 49 47 65 14 37 21 34 21 -9z"/>
<path d="M760 1083 c0 -66 18 -71 22 -5 3 44 5 47 32 50 16 2 32 -2 37 -9 4
-8 11 -10 14 -7 16 16 -10 28 -56 27 l-49 -2 0 -54z"/>
<path d="M951 1131 c-8 -5 -9 -11 -3 -15 6 -3 13 -2 17 4 9 14 58 13 73 -2 23
-23 12 -33 -40 -33 -50 0 -53 -2 -53 -25 0 -24 3 -25 58 -26 l57 -1 0 41 c0
23 -5 47 -12 54 -14 14 -76 16 -97 3z m88 -60 c23 -15 2 -31 -39 -31 -39 0
-56 12 -45 30 8 12 65 13 84 1z"/>
<path d="M1167 1085 c16 -31 33 -54 41 -53 16 4 76 108 62 108 -6 0 -20 -20
-32 -45 -12 -25 -25 -45 -28 -45 -3 0 -16 20 -28 45 -12 25 -26 45 -32 45 -5
0 2 -25 17 -55z"/>
<path d="M1361 1131 c-9 -6 -15 -25 -15 -46 0 -43 14 -55 71 -55 40 0 63 14
48 28 -4 4 -10 1 -12 -5 -7 -19 -79 -17 -87 3 -3 9 -6 18 -6 20 0 2 25 4 55 4
46 0 55 3 55 18 0 10 -5 23 -12 30 -14 14 -77 16 -97 3z m87 -23 c3 -15 -4
-18 -42 -18 -33 0 -46 4 -46 14 0 30 82 34 88 4z"/>
<path d="M1550 1083 c0 -29 5 -53 10 -53 6 0 10 20 10 45 0 39 3 45 24 51 48
12 61 2 64 -49 4 -59 22 -62 22 -3 0 55 -14 67 -79 64 l-51 -2 0 -53z"/>
</g>
</svg>
