<svg width="46" height="42" viewBox="0 0 46 42" fill="none" xmlns="http://www.w3.org/2000/svg">
<g id="telegram 1" clip-path="url(#clip0_57_23)">
<path id="Vector" d="M23.2202 0.275391C10.8518 0.275391 0.823837 9.5364 0.823837 20.9588C0.823837 32.3813 10.8518 41.6423 23.2202 41.6423C35.5886 41.6423 45.6166 32.3813 45.6166 20.9588C45.6166 9.5364 35.5886 0.275391 23.2202 0.275391ZM34.2206 14.4453L30.5438 30.4405C30.2732 31.5746 29.5416 31.8504 28.5207 31.3161L22.9216 27.5069L20.2228 29.9096C19.9615 30.2198 19.5565 30.4181 19.103 30.4181C19.0993 30.4181 19.0974 30.4181 19.0937 30.4181L19.4912 25.1541L29.8682 16.4981C30.3161 16.131 29.7674 15.9224 29.172 16.2895L16.352 23.7459L10.8276 22.1533C9.63308 21.8034 9.59948 21.0502 11.0795 20.509L32.6659 12.8251C33.67 12.4872 34.5434 13.0457 34.2187 14.447L34.2206 14.4453Z" fill="#0723DB"/>
</g>
<defs>
<clipPath id="clip0_57_23">
<rect width="44.7927" height="41.3669" fill="white" transform="translate(0.823837 0.275391)"/>
</clipPath>
</defs>
</svg>
