<svg width="58" height="38" viewBox="0 0 58 38" fill="none" xmlns="http://www.w3.org/2000/svg">
<g id="youtube 1" clip-path="url(#clip0_57_19)">
<g id="youtube_00000103975802115179222730000012269648027945476753_">
<path id="Vector" d="M28.7953 37.2784C27.0983 37.2784 12.0935 37.2506 7.80967 36.2494C6.22057 35.8777 4.77162 35.1485 3.60817 34.1349C2.44472 33.1213 1.6077 31.8589 1.18109 30.4745C0.0115936 26.678 0 19.2732 0 18.96C0 18.6469 0.0130428 11.2421 1.18109 7.44557C1.60894 6.06133 2.44653 4.79923 3.61005 3.78555C4.77358 2.77187 6.22224 2.04216 7.81112 1.6694C12.0935 0.668199 27.0983 0.63916 28.7953 0.63916C30.4923 0.63916 45.4972 0.666937 49.7825 1.66814C51.3711 2.04063 52.8195 2.77012 53.9828 3.78361C55.1462 4.79709 55.9835 6.05901 56.411 7.44305V7.44431C57.5776 11.2408 57.5907 18.6444 57.5907 18.9575C57.5907 19.2706 57.5776 26.6755 56.411 30.472C55.9836 31.8566 55.146 33.1191 53.9821 34.1328C52.8182 35.1466 51.369 35.8761 49.7796 36.2482C45.4972 37.2494 30.4923 37.2784 28.7953 37.2784Z" fill="#0723DB"/>
<path id="Vector_2" d="M24.284 26.5052C23.8997 26.5052 23.5311 26.3722 23.2593 26.1354C22.9875 25.8986 22.8348 25.5775 22.8348 25.2427V12.6765C22.834 12.4546 22.9004 12.2364 23.0274 12.044C23.1543 11.8516 23.3374 11.6919 23.558 11.5809C23.7786 11.47 24.0289 11.4117 24.2837 11.4121C24.5384 11.4125 24.7885 11.4715 25.0086 11.5831L37.4992 17.8668C37.7195 17.9777 37.9024 18.137 38.0296 18.329C38.1567 18.5209 38.2237 18.7386 38.2237 18.9602C38.2237 19.1818 38.1567 19.3995 38.0296 19.5915C37.9024 19.7834 37.7195 19.9428 37.4992 20.0536L25.0086 26.3373C24.7879 26.447 24.5382 26.5049 24.284 26.5052Z" fill="#8391ED"/>
</g>
</g>
<defs>
<clipPath id="clip0_57_19">
<rect width="57.5907" height="36.6392" fill="white" transform="translate(0 0.63916)"/>
</clipPath>
</defs>
</svg>
